<svg width="16" height="16" viewBox="0 0 16 16" fill="none" xmlns="http://www.w3.org/2000/svg">
                        <path fill-rule="evenodd" clip-rule="evenodd" d="M10.2695 3.39844C10.4766 3.39844 10.6445 3.56633 10.6445 3.77344V4.89844H11.7695C11.9766 4.89844 12.1445 5.06633 12.1445 5.27344C12.1445 5.48054 11.9766 5.64844 11.7695 5.64844H10.6445V6.77344C10.6445 6.98054 10.4766 7.14844 10.2695 7.14844C10.0624 7.14844 9.89453 6.98054 9.89453 6.77344V5.64844H8.76953C8.56242 5.64844 8.39453 5.48054 8.39453 5.27344C8.39453 5.06633 8.56242 4.89844 8.76953 4.89844H9.89453V3.77344C9.89453 3.56633 10.0624 3.39844 10.2695 3.39844Z" fill="#767676"></path>
                        <path d="M2.51953 5.27344C2.51953 4.21278 2.51953 3.68245 2.84904 3.35294C3.17854 3.02344 3.70887 3.02344 4.76953 3.02344C5.83019 3.02344 6.36052 3.02344 6.69003 3.35294C7.01953 3.68245 7.01953 4.21278 7.01953 5.27344C7.01953 6.3341 7.01953 6.86443 6.69003 7.19393C6.36052 7.52344 5.83019 7.52344 4.76953 7.52344C3.70887 7.52344 3.17854 7.52344 2.84904 7.19393C2.51953 6.86443 2.51953 6.3341 2.51953 5.27344Z" fill="#767676"></path>
                        <path d="M8.01953 10.7734C8.01953 9.71278 8.01953 9.18245 8.34904 8.85294C8.67854 8.52344 9.20887 8.52344 10.2695 8.52344C11.3302 8.52344 11.8605 8.52344 12.19 8.85294C12.5195 9.18245 12.5195 9.71278 12.5195 10.7734C12.5195 11.8341 12.5195 12.3644 12.19 12.6939C11.8605 13.0234 11.3302 13.0234 10.2695 13.0234C9.20887 13.0234 8.67854 13.0234 8.34904 12.6939C8.01953 12.3644 8.01953 11.8341 8.01953 10.7734Z" fill="#767676"></path>
                        <path d="M2.51953 10.7734C2.51953 9.71278 2.51953 9.18245 2.84904 8.85294C3.17854 8.52344 3.70887 8.52344 4.76953 8.52344C5.83019 8.52344 6.36052 8.52344 6.69003 8.85294C7.01953 9.18245 7.01953 9.71278 7.01953 10.7734C7.01953 11.8341 7.01953 12.3644 6.69003 12.6939C6.36052 13.0234 5.83019 13.0234 4.76953 13.0234C3.70887 13.0234 3.17854 13.0234 2.84904 12.6939C2.51953 12.3644 2.51953 11.8341 2.51953 10.7734Z" fill="#767676"></path>
                        </svg>