<svg width="9" height="10" viewBox="0 0 9 10" fill="none" xmlns="http://www.w3.org/2000/svg">
                        <path d="M1.85491 0.928204C1.45985 0.533138 0.819322 0.533138 0.424255 0.928204C0.0291901 1.32327 0.0291901 1.96379 0.424255 2.35886L3.08103 5.01564L0.424285 7.67239C0.0292196 8.06746 0.0292196 8.70798 0.424285 9.10305C0.81935 9.49811 1.45988 9.49811 1.85494 9.10305L4.51169 6.4463L7.16841 9.10302C7.56348 9.49809 8.20401 9.49809 8.59907 9.10302C8.99414 8.70796 8.99414 8.06743 8.59907 7.67236L5.94235 5.01564L8.5991 2.35889C8.99417 1.96382 8.99417 1.3233 8.5991 0.92823C8.20403 0.533165 7.56351 0.533165 7.16844 0.92823L4.51169 3.58498L1.85491 0.928204Z" fill="#767676"></path>
                        </svg>