<svg width="12" height="12" viewBox="0 0 12 12" fill="none" xmlns="http://www.w3.org/2000/svg">
<path d="M6.24219 11.6C4.68663 11.6 3.36441 11.0556 2.27552 9.96667C1.18663 8.87778 0.642188 7.55556 0.642188 6C0.642188 4.44444 1.18663 3.12222 2.27552 2.03333C3.36441 0.944444 4.68663 0.4 6.24219 0.4C6.38663 0.4 6.52552 0.405555 6.65885 0.416666C6.8033 0.427777 6.94774 0.444444 7.09219 0.466666C6.65885 0.788888 6.31441 1.18889 6.05885 1.66667C5.8033 2.14444 5.67552 2.65555 5.67552 3.2C5.67552 4.14444 5.99774 4.94444 6.64219 5.6C7.29774 6.24444 8.09774 6.56667 9.04219 6.56667C9.58663 6.56667 10.0977 6.43889 10.5755 6.18333C11.0533 5.92778 11.4533 5.58333 11.7755 5.15C11.7977 5.29444 11.8144 5.43889 11.8255 5.58333C11.8366 5.71667 11.8422 5.85556 11.8422 6C11.8422 7.55556 11.2977 8.87778 10.2089 9.96667C9.11997 11.0556 7.79774 11.6 6.24219 11.6ZM6.24219 10.4C7.1533 10.4 7.98108 10.1389 8.72552 9.61667C9.46997 9.09444 10.0144 8.41111 10.3589 7.56667C10.1366 7.62222 9.91441 7.67222 9.69219 7.71667C9.48108 7.75 9.26441 7.76667 9.04219 7.76667C7.77552 7.76667 6.69774 7.32222 5.80885 6.43333C4.91997 5.54444 4.47552 4.46667 4.47552 3.2C4.47552 2.97778 4.49219 2.76111 4.52552 2.55C4.56997 2.32778 4.61997 2.10555 4.67552 1.88333C3.83108 2.22778 3.14774 2.77222 2.62552 3.51667C2.1033 4.26111 1.84219 5.08889 1.84219 6C1.84219 7.22222 2.26997 8.26111 3.12552 9.11667C3.98108 9.97222 5.01997 10.4 6.24219 10.4Z" fill="#68737C"/>
</svg>
