<svg width="15" height="16" viewBox="0 0 15 16" fill="none" xmlns="http://www.w3.org/2000/svg">
<path d="M6.64023 2.8V0.799999H7.84023V2.8H6.64023ZM6.64023 15.2V13.2H7.84023V15.2H6.64023ZM12.4402 8.6V7.4H14.4402V8.6H12.4402ZM0.0402344 8.6V7.4H2.04023V8.6H0.0402344ZM11.3402 4.75L10.4902 3.9L11.8902 2.45L12.7902 3.35L11.3402 4.75ZM2.6069 13.5333L1.7069 12.6333L3.14023 11.25L3.99023 12.1L2.6069 13.5333ZM11.8902 13.5333L10.4902 12.1L11.3402 11.25L12.7902 12.6333L11.8902 13.5333ZM3.14023 4.75L1.7069 3.35L2.6069 2.45L3.99023 3.9L3.14023 4.75ZM7.24023 12C6.12912 12 5.18468 11.6111 4.4069 10.8333C3.62912 10.0556 3.24023 9.11111 3.24023 8C3.24023 6.88889 3.62912 5.94444 4.4069 5.16667C5.18468 4.38889 6.12912 4 7.24023 4C8.35135 4 9.29579 4.38889 10.0736 5.16667C10.8513 5.94444 11.2402 6.88889 11.2402 8C11.2402 9.11111 10.8513 10.0556 10.0736 10.8333C9.29579 11.6111 8.35135 12 7.24023 12ZM7.24023 10.8167C8.01801 10.8167 8.67912 10.5444 9.22357 10C9.76801 9.44444 10.0402 8.77778 10.0402 8C10.0402 7.22222 9.76801 6.56111 9.22357 6.01667C8.67912 5.47222 8.01801 5.2 7.24023 5.2C6.46246 5.2 5.80135 5.47222 5.2569 6.01667C4.71246 6.56111 4.44023 7.22222 4.44023 8C4.44023 8.77778 4.71246 9.44444 5.2569 10C5.80135 10.5444 6.46246 10.8167 7.24023 10.8167Z" fill="#D3D7DA"/>
</svg>
